<svg width="900" height="600" viewBox="0 0 900 600" fill="none" xmlns="http://www.w3.org/2000/svg">
<path fill-rule="evenodd" clip-rule="evenodd" d="M312.421 318.054V234.029C312.421 205.762 327.455 179.63 351.875 165.408L431.277 119.196C443.405 112.141 457.185 108.424 471.216 108.424C485.247 108.424 499.027 112.141 511.155 119.196L590.557 165.408C614.995 179.63 630.029 205.762 630.029 234.029V318.054C630.029 346.321 614.995 372.453 590.575 386.675L511.173 432.887C499.045 439.942 485.265 443.659 471.234 443.659C457.203 443.659 443.423 439.942 431.295 432.887L351.893 386.675C327.455 372.453 312.421 346.321 312.421 318.054V318.054Z" fill="#FF9900" stroke="#FF9900" stroke-width="21.417" stroke-linecap="round" stroke-linejoin="round"/>
<path d="M471.208 337.799C468.773 337.799 466.796 339.775 466.814 342.21C466.831 343.368 467.304 344.474 468.129 345.287C468.955 346.1 470.067 346.556 471.225 346.556C472.384 346.556 473.496 346.1 474.322 345.287C475.147 344.474 475.62 343.368 475.637 342.21C475.636 341.629 475.521 341.055 475.298 340.519C475.075 339.983 474.748 339.496 474.337 339.086C473.926 338.677 473.437 338.352 472.901 338.131C472.364 337.91 471.789 337.797 471.208 337.799M471.225 276.042V196.64V276.042Z" stroke="white" stroke-width="30" stroke-linecap="round" stroke-linejoin="round"/>
<path fill-rule="evenodd" clip-rule="evenodd" d="M212.107 413.851H217.283C217.882 413.851 218.457 414.089 218.88 414.513C219.304 414.936 219.542 415.511 219.543 416.11V421.287C219.542 421.886 219.304 422.46 218.88 422.884C218.456 423.307 217.882 423.545 217.283 423.546H212.107C211.509 423.544 210.935 423.305 210.512 422.882C210.089 422.459 209.85 421.885 209.848 421.287V416.11C209.837 414.869 210.855 413.851 212.107 413.851ZM230.053 413.851H235.23C235.828 413.853 236.402 414.092 236.825 414.515C237.248 414.938 237.487 415.512 237.489 416.11V421.287C237.488 421.886 237.25 422.46 236.827 422.884C236.403 423.307 235.829 423.545 235.23 423.546H230.053C229.455 423.544 228.881 423.305 228.458 422.882C228.035 422.459 227.796 421.885 227.794 421.287V416.11C227.796 415.512 228.035 414.938 228.458 414.515C228.881 414.092 229.455 413.853 230.053 413.851V413.851ZM248.012 413.851H253.188C253.787 413.853 254.36 414.092 254.783 414.515C255.207 414.938 255.446 415.511 255.448 416.11V421.287C255.447 421.886 255.209 422.46 254.785 422.884C254.361 423.307 253.787 423.545 253.188 423.546H248.012C247.414 423.544 246.84 423.305 246.417 422.882C245.994 422.459 245.755 421.885 245.753 421.287V416.11C245.742 414.869 246.76 413.851 248.012 413.851ZM265.958 413.851H271.135C271.733 413.853 272.307 414.092 272.73 414.515C273.153 414.938 273.392 415.512 273.394 416.11V421.287C273.393 421.886 273.155 422.46 272.732 422.884C272.308 423.307 271.734 423.545 271.135 423.546H265.958C265.358 423.546 264.782 423.308 264.357 422.885C263.931 422.462 263.691 421.887 263.688 421.287V416.11C263.695 415.511 263.936 414.939 264.361 414.516C264.785 414.093 265.359 413.855 265.958 413.851V413.851ZM283.906 413.851H289.083C289.683 413.851 290.259 414.089 290.684 414.512C291.11 414.935 291.35 415.51 291.353 416.11V421.287C291.352 421.584 291.293 421.879 291.179 422.153C291.064 422.428 290.897 422.677 290.686 422.887C290.475 423.097 290.225 423.263 289.95 423.376C289.675 423.489 289.38 423.547 289.083 423.546H283.906C283.308 423.544 282.734 423.305 282.311 422.882C281.888 422.459 281.649 421.885 281.647 421.287V416.11C281.649 415.512 281.888 414.938 282.311 414.515C282.734 414.092 283.308 413.853 283.906 413.851ZM230.712 433.421H235.888C236.486 433.423 237.06 433.662 237.483 434.085C237.906 434.508 238.145 435.082 238.147 435.68V440.867C238.145 441.466 237.906 442.039 237.483 442.462C237.06 442.886 236.487 443.125 235.888 443.127H230.712C230.113 443.126 229.538 442.888 229.114 442.464C228.691 442.041 228.453 441.466 228.452 440.867V435.691C228.45 435.393 228.507 435.098 228.62 434.823C228.733 434.547 228.899 434.297 229.109 434.086C229.32 433.875 229.569 433.707 229.844 433.593C230.119 433.479 230.414 433.421 230.712 433.421V433.421ZM248.658 433.421H253.834C254.433 433.423 255.006 433.662 255.429 434.085C255.853 434.508 256.092 435.081 256.094 435.68V440.867C256.091 441.466 255.852 442.039 255.429 442.462C255.006 442.885 254.433 443.124 253.834 443.127H248.658C248.059 443.125 247.486 442.886 247.063 442.462C246.64 442.039 246.401 441.466 246.399 440.867V435.691C246.397 435.393 246.454 435.098 246.567 434.823C246.68 434.547 246.846 434.297 247.056 434.086C247.266 433.875 247.516 433.707 247.79 433.593C248.065 433.479 248.36 433.421 248.658 433.421ZM266.606 433.421H271.782C272.382 433.421 272.958 433.659 273.383 434.082C273.809 434.505 274.049 435.08 274.052 435.68V440.867C274.049 441.467 273.809 442.042 273.384 442.466C272.958 442.889 272.382 443.127 271.782 443.127H266.606C266.007 443.125 265.434 442.886 265.011 442.462C264.588 442.039 264.349 441.466 264.347 440.867V435.691C264.347 435.091 264.585 434.515 265.008 434.09C265.431 433.664 266.006 433.424 266.606 433.421ZM248.012 392.827H253.188C253.787 392.83 254.36 393.069 254.783 393.492C255.206 393.915 255.445 394.488 255.448 395.087V400.263C255.447 400.862 255.209 401.437 254.785 401.86C254.362 402.284 253.787 402.522 253.188 402.522H248.012C247.414 402.52 246.84 402.281 246.417 401.858C245.994 401.435 245.755 400.861 245.753 400.263V395.087C245.742 393.846 246.76 392.827 248.012 392.827ZM265.958 392.827H271.135C271.734 392.829 272.307 393.068 272.73 393.492C273.153 393.915 273.392 394.488 273.394 395.087V400.263C273.394 400.862 273.156 401.436 272.732 401.86C272.308 402.284 271.734 402.522 271.135 402.522H265.958C265.358 402.522 264.782 402.284 264.357 401.861C263.931 401.438 263.691 400.863 263.688 400.263V395.087C263.695 394.488 263.936 393.915 264.361 393.493C264.785 393.07 265.359 392.831 265.958 392.827V392.827ZM654.533 120.96H659.709C660.308 120.96 660.883 121.198 661.306 121.622C661.73 122.045 661.968 122.62 661.969 123.219V128.396C661.968 128.995 661.73 129.569 661.306 129.993C660.882 130.416 660.308 130.654 659.709 130.655H654.533C653.935 130.653 653.361 130.414 652.938 129.991C652.515 129.568 652.276 128.994 652.274 128.396V123.219C652.263 121.978 653.281 120.96 654.533 120.96ZM672.479 120.96H677.655C678.254 120.962 678.827 121.201 679.25 121.624C679.674 122.047 679.913 122.62 679.915 123.219V128.396C679.914 128.995 679.676 129.57 679.252 129.993C678.829 130.417 678.254 130.655 677.655 130.655H672.479C671.881 130.653 671.307 130.414 670.884 129.991C670.461 129.568 670.222 128.994 670.22 128.396V123.219C670.222 122.621 670.461 122.047 670.884 121.624C671.307 121.201 671.881 120.962 672.479 120.96ZM690.438 120.96H695.614C696.213 120.962 696.786 121.201 697.209 121.624C697.633 122.047 697.872 122.62 697.874 123.219V128.396C697.873 128.995 697.635 129.569 697.211 129.993C696.787 130.416 696.213 130.654 695.614 130.655H690.438C689.84 130.653 689.266 130.414 688.843 129.991C688.42 129.568 688.181 128.994 688.179 128.396V123.219C688.168 121.978 689.186 120.96 690.438 120.96ZM708.384 120.96H713.56C714.159 120.962 714.732 121.201 715.155 121.624C715.579 122.047 715.818 122.62 715.82 123.219V128.396C715.819 128.995 715.581 129.57 715.157 129.993C714.734 130.417 714.159 130.655 713.56 130.655H708.384C707.784 130.655 707.208 130.417 706.783 129.994C706.357 129.571 706.117 128.996 706.114 128.396V123.219C706.121 122.62 706.362 122.048 706.787 121.625C707.211 121.202 707.785 120.964 708.384 120.96V120.96ZM726.332 120.96H731.509C732.109 120.96 732.685 121.198 733.11 121.621C733.536 122.044 733.776 122.619 733.779 123.219V128.396C733.778 128.693 733.719 128.988 733.605 129.262C733.49 129.537 733.323 129.786 733.112 129.996C732.901 130.206 732.651 130.372 732.376 130.485C732.101 130.598 731.806 130.656 731.509 130.655H726.332C725.734 130.653 725.16 130.414 724.737 129.991C724.314 129.568 724.075 128.994 724.073 128.396V123.219C724.075 122.621 724.314 122.047 724.737 121.624C725.16 121.201 725.734 120.962 726.332 120.96V120.96ZM673.138 140.53H678.314C678.912 140.532 679.486 140.771 679.909 141.194C680.332 141.617 680.571 142.191 680.573 142.789V147.976C680.571 148.575 680.332 149.148 679.909 149.571C679.486 149.995 678.913 150.234 678.314 150.236H673.138C672.539 150.235 671.964 149.997 671.54 149.573C671.117 149.15 670.878 148.575 670.878 147.976V142.8C670.876 142.502 670.933 142.207 671.046 141.932C671.159 141.656 671.325 141.406 671.535 141.195C671.746 140.984 671.995 140.816 672.27 140.702C672.545 140.588 672.84 140.53 673.138 140.53V140.53ZM691.084 140.53H696.26C696.859 140.532 697.432 140.771 697.855 141.194C698.279 141.617 698.518 142.19 698.52 142.789V147.976C698.517 148.575 698.278 149.148 697.855 149.571C697.432 149.994 696.859 150.233 696.26 150.236H691.084C690.485 150.234 689.912 149.995 689.489 149.571C689.066 149.148 688.827 148.575 688.825 147.976V142.8C688.823 142.502 688.88 142.207 688.993 141.932C689.106 141.656 689.272 141.406 689.482 141.195C689.692 140.984 689.941 140.816 690.216 140.702C690.491 140.588 690.786 140.53 691.084 140.53V140.53ZM709.032 140.53H714.208C714.808 140.53 715.384 140.768 715.809 141.191C716.235 141.614 716.475 142.189 716.478 142.789V147.976C716.475 148.576 716.235 149.151 715.81 149.575C715.384 149.998 714.808 150.236 714.208 150.236H709.032C708.433 150.234 707.86 149.995 707.437 149.571C707.014 149.148 706.775 148.575 706.773 147.976V142.8C706.773 142.2 707.011 141.624 707.434 141.199C707.857 140.773 708.432 140.533 709.032 140.53V140.53ZM690.438 99.936H695.614C696.213 99.9381 696.786 100.177 697.209 100.6C697.633 101.023 697.872 101.596 697.874 102.195V107.372C697.873 107.971 697.635 108.545 697.211 108.969C696.787 109.392 696.213 109.63 695.614 109.631H690.438C689.84 109.629 689.266 109.39 688.843 108.967C688.42 108.544 688.181 107.97 688.179 107.372V102.195C688.168 100.954 689.186 99.936 690.438 99.936V99.936ZM708.384 99.936H713.56C714.159 99.9381 714.732 100.177 715.155 100.6C715.579 101.023 715.818 101.596 715.82 102.195V107.372C715.819 107.971 715.581 108.546 715.157 108.969C714.734 109.393 714.159 109.631 713.56 109.631H708.384C707.784 109.631 707.208 109.393 706.783 108.97C706.357 108.547 706.117 107.972 706.114 107.372V102.195C706.121 101.596 706.362 101.024 706.787 100.601C707.211 100.178 707.785 99.9396 708.384 99.936ZM229.408 125.903H234.585C235.184 125.904 235.758 126.142 236.182 126.565C236.605 126.989 236.843 127.563 236.844 128.162V133.339C236.843 133.938 236.605 134.512 236.182 134.936C235.758 135.359 235.184 135.597 234.585 135.598H229.408C228.81 135.596 228.236 135.357 227.813 134.934C227.39 134.511 227.151 133.937 227.149 133.339V128.162C227.138 126.921 228.157 125.903 229.408 125.903ZM247.355 125.903H252.531C253.129 125.905 253.703 126.144 254.126 126.567C254.549 126.99 254.788 127.564 254.79 128.162V133.339C254.789 133.938 254.551 134.512 254.128 134.936C253.704 135.359 253.13 135.597 252.531 135.598H247.355C246.756 135.596 246.183 135.357 245.76 134.934C245.336 134.511 245.097 133.938 245.095 133.339V128.162C245.097 127.563 245.336 126.99 245.76 126.567C246.183 126.144 246.756 125.905 247.355 125.903V125.903ZM265.313 125.903H270.49C271.088 125.905 271.662 126.144 272.085 126.567C272.508 126.99 272.747 127.564 272.749 128.162V133.339C272.748 133.938 272.51 134.512 272.087 134.936C271.663 135.359 271.089 135.597 270.49 135.598H265.313C264.715 135.596 264.141 135.357 263.718 134.934C263.295 134.511 263.056 133.937 263.054 133.339V128.162C263.043 126.921 264.062 125.903 265.313 125.903ZM283.26 125.903H288.436C289.034 125.905 289.608 126.144 290.031 126.567C290.454 126.99 290.693 127.564 290.695 128.162V133.339C290.694 133.938 290.456 134.512 290.033 134.936C289.609 135.359 289.035 135.597 288.436 135.598H283.26C282.66 135.598 282.084 135.36 281.659 134.937C281.233 134.514 280.993 133.939 280.99 133.339V128.162C280.997 127.563 281.238 126.991 281.663 126.568C282.087 126.145 282.661 125.907 283.26 125.903ZM301.208 125.903H306.384C306.984 125.903 307.56 126.141 307.985 126.564C308.411 126.987 308.651 127.562 308.654 128.162V133.339C308.653 133.636 308.594 133.931 308.48 134.205C308.366 134.48 308.198 134.729 307.987 134.939C307.776 135.149 307.526 135.315 307.251 135.428C306.976 135.541 306.681 135.599 306.384 135.598H301.208C300.609 135.596 300.036 135.357 299.613 134.934C299.189 134.511 298.95 133.938 298.948 133.339V128.162C298.95 127.563 299.189 126.99 299.613 126.567C300.036 126.144 300.609 125.905 301.208 125.903V125.903ZM248.013 145.473H253.19C253.789 145.475 254.362 145.714 254.785 146.138C255.208 146.561 255.447 147.134 255.449 147.733V152.92C255.447 153.518 255.208 154.092 254.785 154.515C254.362 154.938 253.788 155.177 253.19 155.179H248.013C247.414 155.178 246.84 154.94 246.416 154.517C245.993 154.093 245.755 153.519 245.754 152.92V147.743C245.752 147.445 245.809 147.15 245.922 146.875C246.035 146.599 246.201 146.349 246.411 146.138C246.621 145.927 246.871 145.76 247.146 145.645C247.421 145.531 247.715 145.473 248.013 145.473V145.473ZM265.96 145.473H271.136C271.735 145.475 272.308 145.714 272.731 146.138C273.154 146.561 273.393 147.134 273.395 147.733V152.92C273.393 153.518 273.154 154.092 272.731 154.515C272.308 154.938 271.734 155.177 271.136 155.179H265.96C265.361 155.177 264.788 154.938 264.365 154.515C263.941 154.092 263.702 153.519 263.7 152.92V147.743C263.698 147.445 263.756 147.15 263.869 146.875C263.981 146.599 264.148 146.349 264.358 146.138C264.568 145.927 264.818 145.76 265.092 145.645C265.367 145.531 265.662 145.473 265.96 145.473ZM283.908 145.473H289.084C289.684 145.473 290.26 145.711 290.685 146.135C291.111 146.558 291.351 147.133 291.354 147.733V152.92C291.351 153.52 291.111 154.095 290.685 154.518C290.26 154.941 289.684 155.179 289.084 155.179H283.908C283.309 155.177 282.736 154.938 282.313 154.515C281.889 154.092 281.65 153.519 281.648 152.92V147.743C281.648 147.143 281.886 146.567 282.309 146.141C282.733 145.716 283.308 145.476 283.908 145.473V145.473ZM265.313 104.879H270.49C271.089 104.881 271.662 105.12 272.085 105.544C272.508 105.967 272.747 106.54 272.749 107.139V112.315C272.749 112.914 272.511 113.488 272.087 113.912C271.663 114.336 271.089 114.574 270.49 114.574H265.313C264.715 114.572 264.141 114.333 263.718 113.91C263.295 113.487 263.056 112.913 263.054 112.315V107.139C263.043 105.898 264.062 104.879 265.313 104.879ZM283.26 104.879H288.436C289.035 104.881 289.608 105.12 290.031 105.544C290.454 105.967 290.693 106.54 290.695 107.139V112.315C290.695 112.914 290.457 113.488 290.033 113.912C289.609 114.336 289.035 114.574 288.436 114.574H283.26C282.66 114.574 282.084 114.336 281.659 113.913C281.233 113.49 280.993 112.915 280.99 112.315V107.139C280.996 106.54 281.238 105.967 281.662 105.544C282.087 105.122 282.661 104.883 283.26 104.879ZM660.259 415.024H665.436C666.035 415.025 666.609 415.263 667.033 415.686C667.456 416.11 667.694 416.684 667.695 417.283V422.459C667.695 423.058 667.457 423.633 667.033 424.056C666.61 424.48 666.035 424.718 665.436 424.719H660.259C659.66 424.717 659.087 424.478 658.664 424.054C658.241 423.631 658.002 423.058 658 422.459V417.283C657.989 416.042 659.008 415.024 660.259 415.024ZM678.206 415.024H683.382C683.98 415.026 684.554 415.265 684.977 415.688C685.4 416.111 685.639 416.685 685.641 417.283V422.459C685.641 423.058 685.403 423.633 684.979 424.056C684.556 424.48 683.981 424.718 683.382 424.719H678.206C677.607 424.716 677.034 424.477 676.611 424.054C676.188 423.631 675.949 423.058 675.946 422.459V417.283C675.948 416.684 676.187 416.111 676.611 415.688C677.034 415.265 677.607 415.026 678.206 415.024ZM696.165 415.024H701.341C701.939 415.026 702.513 415.265 702.936 415.688C703.359 416.111 703.598 416.685 703.6 417.283V422.459C703.6 423.058 703.362 423.633 702.938 424.056C702.515 424.48 701.94 424.718 701.341 424.719H696.165C695.566 424.716 694.993 424.477 694.57 424.054C694.147 423.631 693.908 423.058 693.905 422.459V417.283C693.895 416.042 694.913 415.024 696.165 415.024ZM714.111 415.024H719.287C719.886 415.026 720.459 415.265 720.882 415.688C721.306 416.111 721.545 416.684 721.547 417.283V422.459C721.546 423.058 721.308 423.633 720.884 424.056C720.461 424.48 719.886 424.718 719.287 424.719H714.111C713.511 424.719 712.935 424.481 712.509 424.058C712.084 423.634 711.844 423.059 711.841 422.459V417.283C711.848 416.684 712.089 416.112 712.514 415.689C712.938 415.266 713.512 415.028 714.111 415.024V415.024ZM732.059 415.024H737.235C737.835 415.024 738.411 415.262 738.836 415.685C739.262 416.108 739.502 416.683 739.505 417.283V422.459C739.504 422.756 739.445 423.051 739.331 423.326C739.217 423.6 739.049 423.85 738.838 424.059C738.628 424.269 738.377 424.436 738.102 424.549C737.827 424.662 737.532 424.72 737.235 424.719H732.059C731.46 424.717 730.887 424.478 730.464 424.054C730.041 423.631 729.802 423.058 729.8 422.459V417.283C729.802 416.685 730.041 416.111 730.464 415.688C730.887 415.265 731.461 415.026 732.059 415.024V415.024ZM678.864 434.594H684.041C684.639 434.596 685.213 434.835 685.636 435.258C686.059 435.681 686.298 436.255 686.3 436.853V442.04C686.298 442.638 686.059 443.212 685.636 443.635C685.213 444.058 684.639 444.297 684.041 444.299H678.864C678.265 444.298 677.691 444.06 677.267 443.637C676.844 443.213 676.605 442.639 676.605 442.04V436.864C676.603 436.566 676.66 436.271 676.773 435.996C676.886 435.72 677.052 435.47 677.262 435.259C677.472 435.048 677.722 434.88 677.996 434.766C678.271 434.652 678.566 434.594 678.864 434.594ZM696.811 434.594H701.987C702.585 434.596 703.159 434.835 703.582 435.258C704.005 435.681 704.244 436.255 704.246 436.853V442.04C704.244 442.638 704.005 443.212 703.582 443.635C703.159 444.058 702.585 444.297 701.987 444.299H696.811C696.212 444.297 695.639 444.058 695.216 443.635C694.792 443.212 694.553 442.639 694.551 442.04V436.864C694.549 436.566 694.606 436.271 694.719 435.996C694.832 435.72 694.998 435.47 695.208 435.259C695.419 435.048 695.668 434.88 695.943 434.766C696.218 434.652 696.513 434.594 696.811 434.594V434.594ZM714.758 434.594H719.935C720.535 434.594 721.111 434.832 721.536 435.255C721.962 435.678 722.202 436.253 722.205 436.853V442.04C722.202 442.64 721.962 443.215 721.536 443.638C721.111 444.061 720.535 444.299 719.935 444.299H714.758C714.16 444.297 713.586 444.058 713.163 443.635C712.74 443.212 712.501 442.638 712.499 442.04V436.864C712.499 436.264 712.737 435.688 713.16 435.263C713.583 434.837 714.158 434.597 714.758 434.594V434.594ZM696.165 394H701.341C701.939 394.002 702.513 394.241 702.936 394.664C703.359 395.087 703.598 395.661 703.6 396.259V401.436C703.599 402.035 703.361 402.609 702.938 403.033C702.514 403.456 701.94 403.694 701.341 403.695H696.165C695.566 403.693 694.993 403.454 694.57 403.031C694.146 402.608 693.907 402.035 693.905 401.436V396.259C693.895 395.018 694.913 394 696.165 394ZM714.111 394H719.287C719.886 394.002 720.459 394.241 720.882 394.664C721.306 395.087 721.545 395.66 721.547 396.259V401.436C721.546 402.035 721.308 402.609 720.884 403.033C720.46 403.456 719.886 403.694 719.287 403.695H714.111C713.511 403.695 712.935 403.457 712.51 403.034C712.084 402.611 711.844 402.036 711.841 401.436V396.259C711.848 395.66 712.089 395.088 712.514 394.665C712.938 394.242 713.512 394.004 714.111 394V394Z" fill="#E1E4E5"/>
<path d="M735.925 307.966C716.147 312.651 695.229 295.878 695.229 295.878C695.229 295.878 706.392 271.517 726.176 266.847C745.954 262.161 766.865 278.92 766.865 278.92C766.865 278.92 755.702 303.28 735.925 307.966V307.966Z" fill="url(#paint0_linear)"/>
<path d="M134.823 316.782C115.045 321.467 94.127 304.694 94.127 304.694C94.127 304.694 105.29 280.334 125.074 275.663C144.852 270.978 165.763 287.736 165.763 287.736C165.763 287.736 154.6 312.097 134.823 316.782V316.782Z" fill="url(#paint1_linear)"/>
<path d="M385.449 98.727C410.23 93.717 425.122 63.874 425.122 63.874C425.122 63.874 399.823 42.171 375.042 47.201C350.26 52.211 335.368 82.034 335.368 82.034C335.368 82.034 360.667 103.737 385.449 98.727V98.727Z" fill="url(#paint2_linear)"/>
<path d="M588.985 513.473C620.375 506.261 638.336 467.756 638.336 467.756C638.336 467.756 605.39 440.968 574 448.206C542.61 455.419 524.648 493.898 524.648 493.898C524.648 493.898 557.595 520.686 588.985 513.473V513.473Z" fill="url(#paint3_linear)"/>
<path d="M782.745 350.809C773.48 350.809 765.97 357.993 765.97 366.855C765.97 375.717 773.48 382.901 782.745 382.901C792.01 382.901 799.52 375.717 799.52 366.855C799.52 357.993 792.01 350.809 782.745 350.809Z" fill="#FF9900"/>
<path d="M294.108 481.089C286.042 481.089 279.504 487.627 279.504 495.693C279.504 503.759 286.042 510.297 294.108 510.297C302.174 510.297 308.712 503.759 308.712 495.693C308.712 487.627 302.174 481.089 294.108 481.089Z" fill="#FF9900"/>
<path d="M233.936 219.792C229.505 219.792 225.913 216.2 225.913 211.769C225.913 207.338 229.505 203.746 233.936 203.746C238.367 203.746 241.959 207.338 241.959 211.769C241.959 216.2 238.367 219.792 233.936 219.792Z" fill="#FF9900"/>
<path d="M765.94 168.781C758.495 168.781 752.459 162.494 752.459 154.738C752.459 146.982 758.495 140.695 765.94 140.695C773.385 140.695 779.421 146.982 779.421 154.738C779.421 162.494 773.385 168.781 765.94 168.781Z" fill="#FF9900"/>
<path d="M140.762 402.45C134.868 402.45 130.09 397.672 130.09 391.778C130.09 385.884 134.868 381.106 140.762 381.106C146.656 381.106 151.434 385.884 151.434 391.778C151.434 397.672 146.656 402.45 140.762 402.45Z" fill="#FF9900"/>
<path d="M393 493C385.82 493 380 487.404 380 480.5C380 473.596 385.82 468 393 468C400.18 468 406 473.596 406 480.5C406 487.404 400.18 493 393 493Z" fill="#E1E4E5"/>
<path d="M225.811 314.765C221.09 314.765 217.263 310.938 217.263 306.217C217.263 301.496 221.09 297.669 225.811 297.669C230.532 297.669 234.359 301.496 234.359 306.217C234.359 310.938 230.532 314.765 225.811 314.765Z" fill="#E1E4E5"/>
<path d="M470.5 525C466.358 525 463 521.418 463 517C463 512.582 466.358 509 470.5 509C474.642 509 478 512.582 478 517C478 521.418 474.642 525 470.5 525Z" fill="#E1E4E5"/>
<path d="M524.96 76.644C520.932 76.644 517.666 73.3784 517.666 69.35C517.666 65.3216 520.932 62.056 524.96 62.056C528.988 62.056 532.254 65.3216 532.254 69.35C532.254 73.3784 528.988 76.644 524.96 76.644Z" fill="#E1E4E5"/>
<path d="M197.38 357.659C198.399 361.461 196.142 365.369 192.34 366.387C188.538 367.406 184.63 365.15 183.612 361.348C182.593 357.546 184.849 353.638 188.651 352.619C192.453 351.6 196.361 353.857 197.38 357.659Z" fill="#E1E4E5"/>
<path d="M249.19 62.459C243.953 62.459 239.708 58.2138 239.708 52.977C239.708 47.7402 243.953 43.495 249.19 43.495C254.427 43.495 258.672 47.7402 258.672 52.977C258.672 58.2138 254.427 62.459 249.19 62.459Z" fill="#E1E4E5"/>
<path d="M721.359 220.359C717.331 220.359 714.065 217.747 714.065 214.524C714.065 211.301 717.331 208.689 721.359 208.689C725.387 208.689 728.653 211.301 728.653 214.524C728.653 217.747 725.387 220.359 721.359 220.359Z" fill="#E1E4E5"/>
<path d="M609.861 106.264C611.981 114.177 607.286 122.311 599.373 124.431C591.46 126.551 583.326 121.855 581.206 113.943C579.086 106.03 583.782 97.8962 591.695 95.7759C599.607 93.6556 607.741 98.3515 609.861 106.264Z" fill="#E1E4E5"/>
<path d="M798.774 202.51H798.965C800.095 218.519 812 218.765 812 218.765C812 218.765 798.872 219.021 798.872 237.519C798.872 219.021 785.743 218.765 785.743 218.765C785.743 218.765 797.644 218.519 798.774 202.51V202.51ZM168.026 134.539H168.355C170.301 162.555 190.805 162.986 190.805 162.986C190.805 162.986 168.195 163.434 168.195 195.806C168.195 163.434 145.585 162.986 145.585 162.986C145.585 162.986 166.08 162.555 168.026 134.539V134.539Z" fill="#E1E4E5"/>
<path d="M279.882 559.024C279.882 561.114 279.53 562.94 278.827 564.503C278.124 566.056 277.128 567.242 275.839 568.062C274.55 568.883 273.046 569.293 271.327 569.293C269.647 569.293 268.158 568.883 266.859 568.062C265.561 567.232 264.55 566.056 263.827 564.532C263.114 562.999 262.748 561.227 262.729 559.215V557.677C262.729 555.626 263.085 553.814 263.798 552.242C264.511 550.67 265.517 549.469 266.815 548.639C268.124 547.799 269.618 547.379 271.298 547.379C273.007 547.379 274.511 547.794 275.81 548.624C277.118 549.444 278.124 550.641 278.827 552.213C279.53 553.775 279.882 555.597 279.882 557.677V559.024ZM277.084 557.647C277.084 555.118 276.576 553.18 275.561 551.832C274.545 550.475 273.124 549.796 271.298 549.796C269.521 549.796 268.119 550.475 267.094 551.832C266.078 553.18 265.556 555.055 265.526 557.457V559.024C265.526 561.476 266.039 563.404 267.064 564.811C268.1 566.207 269.521 566.905 271.327 566.905C273.144 566.905 274.55 566.246 275.546 564.928C276.542 563.6 277.055 561.7 277.084 559.229V557.647ZM282.958 560.929C282.958 559.376 283.261 557.979 283.866 556.739C284.481 555.499 285.331 554.542 286.415 553.868C287.509 553.194 288.754 552.857 290.15 552.857C292.309 552.857 294.052 553.604 295.38 555.099C296.718 556.593 297.387 558.58 297.387 561.061V561.251C297.387 562.794 297.089 564.181 296.493 565.411C295.907 566.632 295.062 567.584 293.959 568.268C292.865 568.951 291.605 569.293 290.18 569.293C288.031 569.293 286.288 568.546 284.95 567.052C283.622 565.558 282.958 563.58 282.958 561.119V560.929ZM285.683 561.251C285.683 563.009 286.088 564.42 286.898 565.484C287.719 566.549 288.812 567.081 290.18 567.081C291.557 567.081 292.65 566.544 293.461 565.47C294.271 564.386 294.677 562.872 294.677 560.929C294.677 559.19 294.262 557.784 293.432 556.71C292.611 555.626 291.518 555.084 290.15 555.084C288.812 555.084 287.733 555.616 286.913 556.681C286.093 557.745 285.683 559.269 285.683 561.251ZM314.174 561.251C314.174 563.663 313.622 565.606 312.519 567.081C311.415 568.556 309.921 569.293 308.036 569.293C306.112 569.293 304.599 568.683 303.495 567.462V575.094H300.785V553.15H303.261L303.393 554.908C304.496 553.541 306.029 552.857 307.992 552.857C309.896 552.857 311.4 553.575 312.504 555.011C313.617 556.446 314.174 558.443 314.174 561.002V561.251ZM311.464 560.943C311.464 559.156 311.083 557.745 310.321 556.71C309.56 555.675 308.515 555.157 307.187 555.157C305.546 555.157 304.315 555.885 303.495 557.34V564.913C304.306 566.358 305.546 567.081 307.216 567.081C308.515 567.081 309.545 566.568 310.307 565.543C311.078 564.508 311.464 562.975 311.464 560.943ZM326.859 564.796C326.859 564.063 326.581 563.497 326.024 563.097C325.478 562.687 324.516 562.335 323.139 562.042C321.771 561.749 320.683 561.397 319.872 560.987C319.071 560.577 318.476 560.089 318.085 559.522C317.704 558.956 317.514 558.282 317.514 557.501C317.514 556.202 318.061 555.104 319.154 554.205C320.258 553.307 321.664 552.857 323.373 552.857C325.17 552.857 326.625 553.321 327.738 554.249C328.861 555.177 329.423 556.363 329.423 557.809H326.698C326.698 557.066 326.381 556.427 325.746 555.89C325.121 555.353 324.33 555.084 323.373 555.084C322.387 555.084 321.615 555.299 321.059 555.729C320.502 556.158 320.224 556.72 320.224 557.413C320.224 558.067 320.482 558.561 321 558.893C321.518 559.225 322.45 559.542 323.798 559.845C325.155 560.147 326.254 560.509 327.094 560.929C327.934 561.349 328.554 561.856 328.954 562.452C329.364 563.038 329.569 563.756 329.569 564.605C329.569 566.021 329.003 567.159 327.87 568.019C326.737 568.868 325.268 569.293 323.461 569.293C322.191 569.293 321.068 569.068 320.092 568.619C319.115 568.17 318.349 567.545 317.792 566.744C317.245 565.934 316.972 565.06 316.972 564.122H319.682C319.73 565.03 320.092 565.753 320.766 566.29C321.449 566.817 322.348 567.081 323.461 567.081C324.486 567.081 325.307 566.876 325.922 566.466C326.547 566.046 326.859 565.489 326.859 564.796ZM349.77 564.796C349.77 564.063 349.491 563.497 348.935 563.097C348.388 562.687 347.426 562.335 346.049 562.042C344.682 561.749 343.593 561.397 342.782 560.987C341.981 560.577 341.386 560.089 340.995 559.522C340.614 558.956 340.424 558.282 340.424 557.501C340.424 556.202 340.971 555.104 342.064 554.205C343.168 553.307 344.574 552.857 346.283 552.857C348.08 552.857 349.535 553.321 350.648 554.249C351.771 555.177 352.333 556.363 352.333 557.809H349.608C349.608 557.066 349.291 556.427 348.656 555.89C348.031 555.353 347.24 555.084 346.283 555.084C345.297 555.084 344.525 555.299 343.969 555.729C343.412 556.158 343.134 556.72 343.134 557.413C343.134 558.067 343.393 558.561 343.91 558.893C344.428 559.225 345.36 559.542 346.708 559.845C348.065 560.147 349.164 560.509 350.004 560.929C350.844 561.349 351.464 561.856 351.864 562.452C352.274 563.038 352.479 563.756 352.479 564.605C352.479 566.021 351.913 567.159 350.78 568.019C349.647 568.868 348.178 569.293 346.371 569.293C345.102 569.293 343.979 569.068 343.002 568.619C342.025 568.17 341.259 567.545 340.702 566.744C340.155 565.934 339.882 565.06 339.882 564.122H342.592C342.641 565.03 343.002 565.753 343.676 566.29C344.359 566.817 345.258 567.081 346.371 567.081C347.396 567.081 348.217 566.876 348.832 566.466C349.457 566.046 349.77 565.489 349.77 564.796ZM355.292 560.929C355.292 559.376 355.595 557.979 356.2 556.739C356.815 555.499 357.665 554.542 358.749 553.868C359.843 553.194 361.088 552.857 362.484 552.857C364.643 552.857 366.386 553.604 367.714 555.099C369.052 556.593 369.721 558.58 369.721 561.061V561.251C369.721 562.794 369.423 564.181 368.827 565.411C368.241 566.632 367.396 567.584 366.293 568.268C365.199 568.951 363.939 569.293 362.514 569.293C360.365 569.293 358.622 568.546 357.284 567.052C355.956 565.558 355.292 563.58 355.292 561.119V560.929ZM358.017 561.251C358.017 563.009 358.422 564.42 359.232 565.484C360.053 566.549 361.146 567.081 362.514 567.081C363.891 567.081 364.984 566.544 365.795 565.47C366.605 564.386 367.011 562.872 367.011 560.929C367.011 559.19 366.596 557.784 365.766 556.71C364.945 555.626 363.852 555.084 362.484 555.084C361.146 555.084 360.067 555.616 359.247 556.681C358.427 557.745 358.017 559.269 358.017 561.251ZM375.668 553.15L375.741 554.908C376.903 553.541 378.471 552.857 380.443 552.857C382.66 552.857 384.169 553.707 384.97 555.406C385.497 554.645 386.181 554.029 387.021 553.561C387.87 553.092 388.871 552.857 390.023 552.857C393.5 552.857 395.268 554.698 395.326 558.38V569H392.616V558.541C392.616 557.408 392.357 556.563 391.84 556.007C391.322 555.44 390.453 555.157 389.232 555.157C388.227 555.157 387.392 555.46 386.728 556.065C386.063 556.661 385.678 557.467 385.57 558.482V569H382.846V558.614C382.846 556.31 381.718 555.157 379.462 555.157C377.685 555.157 376.469 555.914 375.814 557.428V569H373.104V553.15H375.668ZM406.005 569.293C403.856 569.293 402.108 568.59 400.761 567.184C399.413 565.768 398.739 563.878 398.739 561.515V561.017C398.739 559.444 399.037 558.043 399.633 556.812C400.238 555.572 401.078 554.605 402.152 553.912C403.236 553.209 404.408 552.857 405.668 552.857C407.729 552.857 409.33 553.536 410.473 554.894C411.615 556.251 412.187 558.194 412.187 560.724V561.852H401.449C401.488 563.414 401.942 564.679 402.812 565.646C403.69 566.603 404.804 567.081 406.151 567.081C407.108 567.081 407.919 566.886 408.583 566.495C409.247 566.104 409.828 565.587 410.326 564.942L411.981 566.231C410.653 568.272 408.661 569.293 406.005 569.293ZM405.668 555.084C404.574 555.084 403.656 555.484 402.914 556.285C402.172 557.076 401.713 558.189 401.537 559.625H409.477V559.42C409.398 558.043 409.027 556.979 408.363 556.227C407.699 555.465 406.801 555.084 405.668 555.084ZM419.013 549.312V553.15H421.972V555.245H419.013V565.074C419.013 565.709 419.145 566.188 419.408 566.51C419.672 566.822 420.121 566.979 420.756 566.979C421.068 566.979 421.498 566.92 422.045 566.803V569C421.332 569.195 420.639 569.293 419.965 569.293C418.754 569.293 417.841 568.927 417.226 568.194C416.61 567.462 416.303 566.422 416.303 565.074V555.245H413.417V553.15H416.303V549.312H419.013ZM427.86 555.069C429.062 553.595 430.624 552.857 432.548 552.857C435.897 552.857 437.587 554.747 437.616 558.526V569H434.906V558.512C434.896 557.369 434.633 556.524 434.115 555.978C433.607 555.431 432.812 555.157 431.728 555.157C430.849 555.157 430.077 555.392 429.413 555.86C428.749 556.329 428.231 556.944 427.86 557.706V569H425.15V546.5H427.86V555.069ZM444.618 569H441.908V553.15H444.618V569ZM441.688 548.946C441.688 548.507 441.82 548.136 442.084 547.833C442.357 547.53 442.758 547.379 443.285 547.379C443.812 547.379 444.213 547.53 444.486 547.833C444.76 548.136 444.896 548.507 444.896 548.946C444.896 549.386 444.76 549.752 444.486 550.045C444.213 550.338 443.812 550.484 443.285 550.484C442.758 550.484 442.357 550.338 442.084 550.045C441.82 549.752 441.688 549.386 441.688 548.946ZM451.532 553.15L451.62 555.143C452.831 553.619 454.413 552.857 456.366 552.857C459.716 552.857 461.405 554.747 461.435 558.526V569H458.725V558.512C458.715 557.369 458.451 556.524 457.934 555.978C457.426 555.431 456.63 555.157 455.546 555.157C454.667 555.157 453.896 555.392 453.231 555.86C452.567 556.329 452.05 556.944 451.679 557.706V569H448.969V553.15H451.532ZM464.877 560.943C464.877 558.473 465.448 556.51 466.591 555.055C467.733 553.59 469.247 552.857 471.132 552.857C473.065 552.857 474.574 553.541 475.658 554.908L475.79 553.15H478.266V568.619C478.266 570.67 477.655 572.286 476.435 573.468C475.224 574.649 473.593 575.24 471.542 575.24C470.399 575.24 469.281 574.996 468.188 574.508C467.094 574.02 466.259 573.351 465.683 572.501L467.089 570.875C468.251 572.311 469.672 573.028 471.352 573.028C472.67 573.028 473.695 572.657 474.428 571.915C475.17 571.173 475.541 570.128 475.541 568.78V567.418C474.457 568.668 472.978 569.293 471.103 569.293C469.247 569.293 467.743 568.546 466.591 567.052C465.448 565.558 464.877 563.521 464.877 560.943ZM467.602 561.251C467.602 563.038 467.968 564.444 468.7 565.47C469.433 566.485 470.458 566.993 471.776 566.993C473.485 566.993 474.74 566.217 475.541 564.664V557.428C474.711 555.914 473.466 555.157 471.806 555.157C470.487 555.157 469.457 555.67 468.715 556.695C467.973 557.721 467.602 559.239 467.602 561.251ZM503.842 565.265L506.889 553.15H509.599L504.984 569H502.787L498.935 556.988L495.185 569H492.987L488.388 553.15H491.083L494.203 565.016L497.895 553.15H500.077L503.842 565.265ZM518.944 569.293C516.796 569.293 515.048 568.59 513.7 567.184C512.353 565.768 511.679 563.878 511.679 561.515V561.017C511.679 559.444 511.977 558.043 512.572 556.812C513.178 555.572 514.018 554.605 515.092 553.912C516.176 553.209 517.348 552.857 518.607 552.857C520.668 552.857 522.27 553.536 523.412 554.894C524.555 556.251 525.126 558.194 525.126 560.724V561.852H514.389C514.428 563.414 514.882 564.679 515.751 565.646C516.63 566.603 517.743 567.081 519.091 567.081C520.048 567.081 520.858 566.886 521.522 566.495C522.187 566.104 522.768 565.587 523.266 564.942L524.921 566.231C523.593 568.272 521.601 569.293 518.944 569.293ZM518.607 555.084C517.514 555.084 516.596 555.484 515.854 556.285C515.111 557.076 514.652 558.189 514.477 559.625H522.416V559.42C522.338 558.043 521.967 556.979 521.303 556.227C520.639 555.465 519.74 555.084 518.607 555.084ZM530.839 553.15L530.927 555.143C532.138 553.619 533.72 552.857 535.673 552.857C539.022 552.857 540.712 554.747 540.741 558.526V569H538.031V558.512C538.021 557.369 537.758 556.524 537.24 555.978C536.732 555.431 535.937 555.157 534.853 555.157C533.974 555.157 533.202 555.392 532.538 555.86C531.874 556.329 531.356 556.944 530.985 557.706V569H528.275V553.15H530.839ZM548.505 549.312V553.15H551.464V555.245H548.505V565.074C548.505 565.709 548.637 566.188 548.9 566.51C549.164 566.822 549.613 566.979 550.248 566.979C550.561 566.979 550.99 566.92 551.537 566.803V569C550.824 569.195 550.131 569.293 549.457 569.293C548.246 569.293 547.333 568.927 546.718 568.194C546.103 567.462 545.795 566.422 545.795 565.074V555.245H542.909V553.15H545.795V549.312H548.505ZM576.117 565.265L579.164 553.15H581.874L577.26 569H575.062L571.21 556.988L567.46 569H565.263L560.663 553.15H563.358L566.479 565.016L570.17 553.15H572.353L576.117 565.265ZM592.304 555.582C591.894 555.514 591.449 555.479 590.971 555.479C589.193 555.479 587.987 556.236 587.353 557.75V569H584.643V553.15H587.279L587.323 554.981C588.212 553.565 589.472 552.857 591.103 552.857C591.63 552.857 592.03 552.926 592.304 553.062V555.582ZM593.798 560.929C593.798 559.376 594.101 557.979 594.706 556.739C595.321 555.499 596.171 554.542 597.255 553.868C598.349 553.194 599.594 552.857 600.99 552.857C603.148 552.857 604.892 553.604 606.22 555.099C607.558 556.593 608.227 558.58 608.227 561.061V561.251C608.227 562.794 607.929 564.181 607.333 565.411C606.747 566.632 605.902 567.584 604.799 568.268C603.705 568.951 602.445 569.293 601.02 569.293C598.871 569.293 597.128 568.546 595.79 567.052C594.462 565.558 593.798 563.58 593.798 561.119V560.929ZM596.522 561.251C596.522 563.009 596.928 564.42 597.738 565.484C598.559 566.549 599.652 567.081 601.02 567.081C602.396 567.081 603.49 566.544 604.301 565.47C605.111 564.386 605.517 562.872 605.517 560.929C605.517 559.19 605.102 557.784 604.271 556.71C603.451 555.626 602.357 555.084 600.99 555.084C599.652 555.084 598.573 555.616 597.753 556.681C596.933 557.745 596.522 559.269 596.522 561.251ZM614.188 553.15L614.276 555.143C615.487 553.619 617.069 552.857 619.022 552.857C622.372 552.857 624.062 554.747 624.091 558.526V569H621.381V558.512C621.371 557.369 621.107 556.524 620.59 555.978C620.082 555.431 619.286 555.157 618.202 555.157C617.323 555.157 616.552 555.392 615.888 555.86C615.224 556.329 614.706 556.944 614.335 557.706V569H611.625V553.15H614.188ZM627.533 560.943C627.533 558.473 628.104 556.51 629.247 555.055C630.39 553.59 631.903 552.857 633.788 552.857C635.722 552.857 637.23 553.541 638.314 554.908L638.446 553.15H640.922V568.619C640.922 570.67 640.312 572.286 639.091 573.468C637.88 574.649 636.249 575.24 634.198 575.24C633.056 575.24 631.938 574.996 630.844 574.508C629.75 574.02 628.915 573.351 628.339 572.501L629.745 570.875C630.907 572.311 632.328 573.028 634.008 573.028C635.326 573.028 636.352 572.657 637.084 571.915C637.826 571.173 638.197 570.128 638.197 568.78V567.418C637.113 568.668 635.634 569.293 633.759 569.293C631.903 569.293 630.399 568.546 629.247 567.052C628.104 565.558 627.533 563.521 627.533 560.943ZM630.258 561.251C630.258 563.038 630.624 564.444 631.356 565.47C632.089 566.485 633.114 566.993 634.433 566.993C636.142 566.993 637.396 566.217 638.197 564.664V557.428C637.367 555.914 636.122 555.157 634.462 555.157C633.144 555.157 632.113 555.67 631.371 556.695C630.629 557.721 630.258 559.239 630.258 561.251ZM648.056 562.979H645.609L645.419 547.672H648.261L648.056 562.979ZM645.316 567.638C645.316 567.198 645.448 566.832 645.712 566.539C645.985 566.236 646.386 566.085 646.913 566.085C647.44 566.085 647.841 566.236 648.114 566.539C648.388 566.832 648.524 567.198 648.524 567.638C648.524 568.077 648.388 568.443 648.114 568.736C647.841 569.02 647.44 569.161 646.913 569.161C646.386 569.161 645.985 569.02 645.712 568.736C645.448 568.443 645.316 568.077 645.316 567.638Z" fill="white"/>
<defs>
<linearGradient id="paint0_linear" x1="661.447" y1="319.615" x2="834.581" y2="237.821" gradientUnits="userSpaceOnUse">
<stop stop-color="white"/>
<stop offset="1" stop-color="#EEEEEE"/>
</linearGradient>
<linearGradient id="paint1_linear" x1="60.345" y1="328.431" x2="233.479" y2="246.637" gradientUnits="userSpaceOnUse">
<stop stop-color="white"/>
<stop offset="1" stop-color="#EEEEEE"/>
</linearGradient>
<linearGradient id="paint2_linear" x1="475.647" y1="73.091" x2="237.467" y2="70.882" gradientUnits="userSpaceOnUse">
<stop stop-color="white"/>
<stop offset="1" stop-color="#EEEEEE"/>
</linearGradient>
<linearGradient id="paint3_linear" x1="702.988" y1="477.795" x2="399.6" y2="482.987" gradientUnits="userSpaceOnUse">
<stop stop-color="white"/>
<stop offset="1" stop-color="#EEEEEE"/>
</linearGradient>
</defs>
</svg>
